<svg width="100" height="19" viewBox="0 0 100 19" fill="none" xmlns="http://www.w3.org/2000/svg">
<path d="M7.30464 18.036C5.50453 18.036 3.97918 17.577 2.72858 16.659C1.49693 15.741 0.682145 14.499 0.284227 12.933C0.0947424 12.285 0 11.565 0 10.773C0 9.891 0.113691 9.09 0.341073 8.37C0.795836 6.876 1.62957 5.706 2.84227 4.86C4.07392 3.996 5.57085 3.564 7.33306 3.564C9.09527 3.564 10.5733 3.996 11.767 4.86C12.9797 5.706 13.8134 6.858 14.2682 8.316C14.4956 9.072 14.6093 9.873 14.6093 10.719C14.6093 11.403 14.5335 12.087 14.3819 12.771C13.984 14.391 13.1597 15.678 11.9091 16.632C10.6775 17.568 9.14264 18.036 7.30464 18.036ZM7.30464 13.689C7.7973 13.689 8.19522 13.536 8.49839 13.23C8.80157 12.906 9.01 12.483 9.12369 11.961C9.19949 11.619 9.23738 11.214 9.23738 10.746C9.23738 10.332 9.19001 9.918 9.09527 9.504C8.81104 8.442 8.21417 7.911 7.30464 7.911C6.35721 7.911 5.76034 8.442 5.51401 9.504C5.41926 9.81 5.37189 10.224 5.37189 10.746C5.37189 11.214 5.40979 11.619 5.48558 11.961C5.76981 13.113 6.37616 13.689 7.30464 13.689Z" fill="white"/>
<path d="M23.5231 18.036C21.9125 18.036 20.5103 17.667 19.3166 16.929C18.1228 16.173 17.2512 15.129 16.7017 13.797C16.3227 12.879 16.1332 11.853 16.1332 10.719C16.1332 9.603 16.3227 8.586 16.7017 7.668C17.2322 6.39 18.1039 5.391 19.3166 4.671C20.5293 3.933 21.9315 3.564 23.5231 3.564C25.1338 3.564 26.5549 3.951 27.7865 4.725C29.0371 5.481 29.8803 6.435 30.3162 7.587C30.4488 7.911 30.5341 8.253 30.572 8.613V8.694C30.572 8.874 30.4488 8.991 30.2025 9.045L25.7969 9.72H25.7117C25.4653 9.72 25.3327 9.603 25.3138 9.369L25.2001 8.991C25.1053 8.685 24.8969 8.433 24.5748 8.235C24.2716 8.019 23.9116 7.911 23.4947 7.911C22.7368 7.911 22.1967 8.235 21.8746 8.883C21.6472 9.333 21.5335 9.954 21.5335 10.746C21.5335 11.484 21.6378 12.105 21.8462 12.609C22.1683 13.329 22.7178 13.689 23.4947 13.689C24.3284 13.689 24.8969 13.275 25.2001 12.447L25.2285 12.339C25.2853 12.033 25.4464 11.907 25.7117 11.961L30.1456 12.663C30.392 12.717 30.5151 12.843 30.5151 13.041C30.5151 13.257 30.4488 13.554 30.3162 13.932C29.8235 15.246 28.9613 16.263 27.7297 16.983C26.517 17.685 25.1148 18.036 23.5231 18.036Z" fill="white"/>
<path d="M40.6287 3.591C41.273 3.591 41.7846 3.708 42.1635 3.942C42.3341 4.032 42.4004 4.203 42.3625 4.455L41.6804 8.613C41.6614 8.757 41.6046 8.847 41.5098 8.883C41.434 8.919 41.3203 8.919 41.1688 8.883C40.8277 8.811 40.5245 8.775 40.2592 8.775C39.975 8.775 39.7097 8.802 39.4634 8.856C38.9707 8.946 38.5444 9.144 38.1844 9.45C37.8433 9.738 37.6728 10.134 37.6728 10.638V17.415C37.6728 17.541 37.6349 17.64 37.5591 17.712C37.4833 17.784 37.3791 17.82 37.2464 17.82H32.7556C32.623 17.82 32.5188 17.784 32.443 17.712C32.3672 17.64 32.3293 17.541 32.3293 17.415V4.185C32.3293 4.059 32.3672 3.96 32.443 3.888C32.5188 3.816 32.623 3.78 32.7556 3.78H37.2464C37.3791 3.78 37.4833 3.816 37.5591 3.888C37.6349 3.96 37.6728 4.059 37.6728 4.185V4.833C37.6728 4.887 37.6917 4.923 37.7296 4.941C37.7675 4.959 37.7959 4.95 37.8149 4.914C38.5349 4.032 39.4729 3.591 40.6287 3.591Z" fill="white"/>
<path d="M57.566 9.801C57.6228 10.197 57.6513 10.602 57.6513 11.016C57.6513 11.304 57.6418 11.529 57.6228 11.691C57.6228 11.943 57.4807 12.069 57.1965 12.069H48.6697C48.5939 12.069 48.556 12.105 48.556 12.177C48.556 12.339 48.6318 12.528 48.7834 12.744C48.9729 13.05 49.3045 13.311 49.7782 13.527C50.2708 13.725 50.8203 13.824 51.4267 13.824C51.9383 13.824 52.412 13.752 52.8478 13.608C53.2836 13.464 53.6531 13.257 53.9563 12.987C54.0511 12.915 54.1458 12.879 54.2405 12.879C54.3732 12.879 54.4774 12.933 54.5532 13.041L56.7133 15.66C56.7891 15.75 56.827 15.849 56.827 15.957C56.827 16.065 56.7796 16.155 56.6849 16.227C56.0217 16.839 55.1974 17.298 54.2121 17.604C53.2268 17.892 52.1657 18.036 51.0288 18.036C49.2666 18.036 47.7602 17.685 46.5096 16.983C45.259 16.281 44.3494 15.282 43.781 13.986C43.3641 13.05 43.1557 12.042 43.1557 10.962C43.1557 9.828 43.3262 8.82 43.6673 7.938C44.1789 6.57 45.0221 5.499 46.1969 4.725C47.3717 3.951 48.755 3.564 50.3466 3.564C51.5593 3.564 52.6773 3.834 53.7005 4.374C54.7427 4.914 55.5954 5.661 56.2586 6.615C56.9407 7.551 57.3765 8.613 57.566 9.801ZM50.3182 7.911C49.5413 7.911 49.0013 8.271 48.6981 8.991L48.5844 9.288C48.5655 9.342 48.5749 9.387 48.6128 9.423C48.6507 9.441 48.6886 9.45 48.7265 9.45H51.9667C52.0425 9.45 52.0804 9.414 52.0804 9.342C52.0804 9.27 52.052 9.153 51.9951 8.991C51.9004 8.649 51.7014 8.388 51.3983 8.208C51.114 8.01 50.754 7.911 50.3182 7.911Z" fill="white"/>
<path d="M65.6067 3.564C66.8952 3.564 68.0795 3.771 69.1596 4.185C70.2396 4.599 71.0923 5.166 71.7176 5.886C72.3429 6.606 72.6556 7.389 72.6556 8.235V17.415C72.6556 17.541 72.6177 17.64 72.5419 17.712C72.4661 17.784 72.3619 17.82 72.2292 17.82H67.7384C67.6058 17.82 67.5016 17.784 67.4258 17.712C67.35 17.64 67.3121 17.541 67.3121 17.415V16.47C67.3121 16.398 67.2932 16.362 67.2553 16.362C67.2363 16.344 67.2079 16.362 67.17 16.416C66.8479 16.974 66.4026 17.388 65.8341 17.658C65.2657 17.91 64.5172 18.036 63.5887 18.036C62.035 18.036 60.8128 17.703 59.9222 17.037C59.0316 16.353 58.5863 15.363 58.5863 14.067C58.5863 12.699 59.0885 11.646 60.0927 10.908C61.1159 10.17 62.5939 9.801 64.5267 9.801H67.17C67.2647 9.801 67.3121 9.756 67.3121 9.666V9.18C67.3121 8.802 67.1605 8.496 66.8573 8.262C66.5731 8.028 66.1847 7.911 65.692 7.911C65.3509 7.911 65.0478 7.965 64.7825 8.073C64.5172 8.181 64.3277 8.325 64.214 8.505C64.1382 8.631 64.0624 8.721 63.9866 8.775C63.9298 8.811 63.8445 8.82 63.7308 8.802L59.1548 8.262C58.8895 8.226 58.7569 8.118 58.7569 7.938C58.8327 7.128 59.1737 6.39 59.7801 5.724C60.3864 5.058 61.1917 4.536 62.196 4.158C63.2192 3.762 64.3561 3.564 65.6067 3.564ZM65.2372 14.526C65.8436 14.526 66.3363 14.373 66.7152 14.067C67.1131 13.761 67.3121 13.347 67.3121 12.825V12.474C67.3121 12.384 67.2647 12.339 67.17 12.339H65.7489C64.5551 12.339 63.9582 12.708 63.9582 13.446C63.9582 13.77 64.0624 14.031 64.2709 14.229C64.4983 14.427 64.8204 14.526 65.2372 14.526Z" fill="white"/>
<path d="M84.0642 7.425C84.0642 7.551 84.0263 7.65 83.9505 7.722C83.8747 7.794 83.7705 7.83 83.6378 7.83H81.2787C81.184 7.83 81.1366 7.875 81.1366 7.965V12.204C81.1366 13.104 81.4777 13.554 82.1599 13.554H83.2115C83.3441 13.554 83.4484 13.59 83.5241 13.662C83.5999 13.734 83.6378 13.833 83.6378 13.959V17.415C83.6378 17.667 83.4957 17.811 83.2115 17.847C82.4725 17.901 81.7619 17.928 81.0798 17.928C79.3555 17.928 78.0859 17.676 77.2711 17.172C76.4564 16.668 76.0395 15.714 76.0206 14.31V7.965C76.0206 7.875 75.9732 7.83 75.8784 7.83H74.3436C74.211 7.83 74.1068 7.794 74.031 7.722C73.9552 7.65 73.9173 7.551 73.9173 7.425V4.185C73.9173 4.059 73.9552 3.96 74.031 3.888C74.1068 3.816 74.211 3.78 74.3436 3.78H75.8784C75.9732 3.78 76.0206 3.735 76.0206 3.645V0.405C76.0206 0.279 76.0584 0.18 76.1342 0.108C76.21 0.0360001 76.3143 0 76.4469 0H80.7103C80.8429 0 80.9472 0.0360001 81.0229 0.108C81.0987 0.18 81.1366 0.279 81.1366 0.405V3.645C81.1366 3.735 81.184 3.78 81.2787 3.78H83.6378C83.7705 3.78 83.8747 3.816 83.9505 3.888C84.0263 3.96 84.0642 4.059 84.0642 4.185V7.425Z" fill="white"/>
<path d="M99.9147 9.801C99.9716 10.197 100 10.602 100 11.016C100 11.304 99.9905 11.529 99.9716 11.691C99.9716 11.943 99.8295 12.069 99.5452 12.069H91.0184C90.9426 12.069 90.9047 12.105 90.9047 12.177C90.9047 12.339 90.9805 12.528 91.1321 12.744C91.3216 13.05 91.6532 13.311 92.1269 13.527C92.6196 13.725 93.1691 13.824 93.7754 13.824C94.287 13.824 94.7607 13.752 95.1966 13.608C95.6324 13.464 96.0019 13.257 96.305 12.987C96.3998 12.915 96.4945 12.879 96.5893 12.879C96.7219 12.879 96.8261 12.933 96.9019 13.041L99.0621 15.66C99.1378 15.75 99.1757 15.849 99.1757 15.957C99.1757 16.065 99.1284 16.155 99.0336 16.227C98.3704 16.839 97.5462 17.298 96.5609 17.604C95.5755 17.892 94.5144 18.036 93.3775 18.036C91.6153 18.036 90.1089 17.685 88.8583 16.983C87.6077 16.281 86.6982 15.282 86.1297 13.986C85.7128 13.05 85.5044 12.042 85.5044 10.962C85.5044 9.828 85.6749 8.82 86.016 7.938C86.5276 6.57 87.3708 5.499 88.5456 4.725C89.7204 3.951 91.1037 3.564 92.6954 3.564C93.9081 3.564 95.026 3.834 96.0492 4.374C97.0914 4.914 97.9441 5.661 98.6073 6.615C99.2894 7.551 99.7252 8.613 99.9147 9.801ZM92.6669 7.911C91.8901 7.911 91.35 8.271 91.0468 8.991L90.9332 9.288C90.9142 9.342 90.9237 9.387 90.9616 9.423C90.9995 9.441 91.0374 9.45 91.0753 9.45H94.3155C94.3913 9.45 94.4292 9.414 94.4292 9.342C94.4292 9.27 94.4007 9.153 94.3439 8.991C94.2491 8.649 94.0502 8.388 93.747 8.208C93.4628 8.01 93.1028 7.911 92.6669 7.911Z" fill="white"/>
</svg>
